PathFileType	4	(X/Y/Z)	c:/Users/goper/Files/vsCode/490R/osim_files/A06/A06_Fast_05.trc
DataRate	CameraRate	NumFrames	NumMarkers	Units                	OrigDataRate	OrigDataStartFrame	OrigNumFrames
120.00	120.00	8	36	mm	120.0	669	1336
                Frame#	Time	LPSIS			LASIS			LTH1			LTH2			LTH3			LTH4			LLFE			LMFE			LSH1			LSH2			LSH3			LSH4			LLMAL			LMMAL			LCAL			LMTP5			LTOE			LMTP1			RPSIS			RASIS			RTH1			RTH2			RTH3			RTH4			RLFE			RMFE			RSH1			RSH2			RSH3			RSH4			RLMAL			RMMAL			RCAL			RMTP1			RTOE			RMTP5		
		X1	Y1	Z1	X2	Y2	Z2	X3	Y3	Z3	X4	Y4	Z4	X5	Y5	Z5	X6	Y6	Z6	X7	Y7	Z7	X8	Y8	Z8	X9	Y9	Z9	X10	Y10	Z10	X11	Y11	Z11	X12	Y12	Z12	X13	Y13	Z13	X14	Y14	Z14	X15	Y15	Z15	X16	Y16	Z16	X17	Y17	Z17	X18	Y18	Z18	X19	Y19	Z19	X20	Y20	Z20	X21	Y21	Z21	X22	Y22	Z22	X23	Y23	Z23	X24	Y24	Z24	X25	Y25	Z25	X26	Y26	Z26	X27	Y27	Z27	X28	Y28	Z28	X29	Y29	Z29	X30	Y30	Z30	X31	Y31	Z31	X32	Y32	Z32	X33	Y33	Z33	X34	Y34	Z34	X35	Y35	Z35	X36	Y36	Z36

669	5.56667	-295.78043	961.76678	339.35223	-478.68445	895.46960	425.01761	-527.33527	570.55414	452.83774	-551.94641	536.66791	446.72815	-583.56769	599.80969	437.47546	-597.84387	560.31183	433.56857	-605.98218	481.41083	429.06686	-599.01660	475.14655	326.25339	-566.28442	376.29312	452.15308	-580.00476	333.32861	457.21313	-625.08868	387.94586	437.25012	-631.09479	346.59091	441.04016	-613.20404	87.05491	415.51987	-630.58801	97.05317	332.05222	-550.16302	76.21486	365.02432	-730.96710	43.35760	434.00244	-770.16431	68.03025	380.45587	-746.51422	57.87948	340.80847	-306.79382	978.58215	206.62958	-488.11758	939.34344	170.66896	-273.79913	575.08063	114.32751	-262.28244	534.37646	112.63070	-331.06607	552.39105	122.49875	-310.57718	512.32758	119.11144	-237.97574	420.35287	135.97052	-238.80591	418.09006	225.34258	-119.23568	316.77795	145.48430	-87.89722	281.04333	145.96262	-161.80945	274.65350	156.74934	-124.49216	242.98299	151.82927	17.79909	171.94984	132.39011	6.34655	167.42552	218.80582	77.54214	182.74950	180.04373	-81.43668	57.25835	209.10075	-99.20095	60.06652	169.31235	-71.01337	62.10115	119.51286
670	5.57500	-306.46432	964.05884	340.08469	-489.28329	898.70636	426.21259	-535.03412	571.32111	453.39954	-559.19598	537.20087	447.31723	-591.77997	600.02222	439.00644	-605.57483	560.35822	435.05887	-613.11212	481.63766	430.10657	-608.38770	476.06390	328.16302	-571.99323	377.27600	452.80685	-584.81799	333.98392	457.72919	-631.07727	387.77444	438.07962	-636.19427	346.30267	441.77930	-613.39032	87.12388	415.55917	-630.87915	97.13933	332.09518	-550.25446	76.36179	365.09055	-731.02740	43.19220	434.11197	-770.38080	67.50867	380.32990	-746.66577	57.58945	340.77008	-317.27625	980.72339	207.60684	-498.68811	942.25983	171.81519	-291.46762	573.42114	114.71933	-281.37256	532.05823	113.69459	-349.39609	551.94244	123.68219	-330.19965	511.67206	120.40142	-260.37668	417.58563	137.05746	-260.82645	415.29453	226.34973	-136.69617	319.64499	146.23073	-103.90764	285.27814	146.50188	-176.88899	275.35431	157.59360	-138.99384	245.43579	152.19048	2.70451	182.43127	131.86818	-8.59149	177.20093	218.57812	61.11942	198.66978	179.95354	-86.26754	60.10887	209.16890	-104.96339	61.22961	169.32405	-76.64494	65.86481	119.43732
671	5.58333	-317.12250	966.54309	341.22574	-500.08835	901.97345	427.03711	-541.99377	571.79883	453.84042	-565.83948	537.26941	447.87558	-599.59283	599.60577	440.23389	-612.96967	559.67596	436.23392	-619.25629	480.85522	431.27328	-615.03412	476.22037	328.80762	-576.73438	377.78448	453.01859	-588.87921	334.23340	458.03024	-636.03302	387.46207	438.71539	-640.47125	345.84000	442.42877	-613.59918	87.16486	415.54517	-631.08527	97.15706	332.11865	-550.33777	76.35773	365.22989	-731.10736	43.05757	434.17484	-770.53223	67.09776	380.25037	-746.81927	57.36642	340.75061	-327.47791	983.06671	209.10667	-508.86398	945.60602	172.76384	-309.76065	571.58099	115.83645	-300.87979	529.93414	114.86456	-368.32010	551.81775	125.05189	-350.35913	511.02731	121.68427	-283.64337	414.93665	138.20386	-283.68570	412.65402	227.49272	-155.78522	323.07629	145.96124	-121.70448	289.41821	146.56317	-193.97188	276.67761	158.30611	-154.82162	248.40866	152.74437	-15.64128	193.56207	131.75211	-26.19142	186.78508	217.37311	41.56498	215.03061	179.74890	-92.61579	63.60266	209.16162	-111.99440	62.72247	169.27695	-83.61794	70.37048	119.45759
672	5.59167	-327.74698	969.17798	342.90283	-511.10980	905.42377	427.52240	-548.72876	572.19592	454.21088	-571.93323	537.27130	448.23172	-606.74677	598.98383	441.14600	-619.21735	559.04462	436.90173	-624.32135	479.83896	431.98181	-619.83569	475.87115	328.51971	-580.56921	378.00479	453.00180	-592.26892	334.28558	458.02121	-640.24982	387.01804	439.30811	-644.06995	345.31549	442.88950	-613.76807	87.23937	415.43118	-631.24017	97.15898	332.02063	-550.38019	76.45914	365.15814	-731.18097	43.00111	434.14404	-770.66364	66.77567	380.07550	-746.89960	57.11953	340.62509	-337.41531	985.52942	210.96939	-518.54865	949.18817	173.65309	-328.05121	570.11719	118.07846	-320.89444	528.04938	116.04468	-387.57428	551.91846	126.43651	-370.92657	510.93808	123.01354	-308.59201	412.37082	139.20679	-307.18481	410.36218	228.75552	-175.74300	326.32373	146.70042	-140.30905	294.16339	147.11736	-212.84438	276.41910	158.65622	-171.54878	252.64198	152.74223	-35.53930	204.60010	131.84633	-45.82806	196.78525	217.41751	18.85590	231.45221	179.68636	-100.60651	68.00529	209.14920	-119.98482	65.20815	169.31268	-92.02343	75.78880	119.40220
673	5.60000	-338.33957	971.90161	344.91171	-522.52136	908.77856	427.88956	-554.41986	572.73431	454.71548	-577.02380	537.79010	447.53989	-613.58582	598.54913	441.98755	-625.38727	558.45026	437.55801	-628.42236	478.79517	433.00311	-623.56213	475.30765	328.14716	-583.70953	378.07416	452.84265	-594.86072	334.19403	457.80960	-643.53400	386.50421	439.98798	-646.94562	344.81415	443.47412	-613.85339	87.31646	415.24692	-631.34576	97.14468	331.92499	-550.39215	76.51607	365.10144	-731.18176	42.95938	434.11166	-770.75891	66.50117	379.95731	-746.95850	56.89898	340.44302	-347.11264	988.14771	213.04845	-527.85309	952.80151	174.26945	-346.90945	569.23761	118.11813	-341.09695	526.81085	117.36550	-407.65134	553.26965	127.83817	-391.63202	511.47903	124.43803	-332.28998	411.12915	141.06142	-331.14981	408.89261	230.06953	-196.65259	330.02966	147.68221	-160.08264	299.35098	147.78906	-231.60716	279.74222	159.33669	-189.83604	256.17828	152.78922	-53.00527	214.15045	132.30341	-63.04739	205.88348	217.31609	0.11060	243.91248	179.93410	-110.95179	74.37815	209.19316	-130.29062	70.54723	169.30733	-102.98891	82.73515	119.41506
674	5.60833	-348.78198	974.81085	347.11673	-533.52075	911.76605	428.04626	-561.25574	573.64282	455.36743	-582.63080	538.06775	448.72922	-620.03345	598.43811	442.58246	-631.11755	558.07819	438.25632	-632.31018	478.53027	433.64041	-626.85156	474.62146	328.04980	-586.26526	378.19583	452.80920	-596.87439	334.17175	457.74356	-646.28210	385.99789	440.75940	-649.20349	344.25095	444.15781	-613.95532	87.38962	415.12164	-631.42267	97.15273	331.85187	-550.36047	76.61842	365.02466	-731.20111	42.91289	434.09314	-770.81647	66.26063	379.86063	-746.99915	56.75441	340.37378	-356.59750	990.92108	215.24956	-537.25830	956.47565	174.68256	-365.80551	568.97321	119.33884	-361.85480	526.46136	118.43827	-426.89075	555.50732	130.02643	-412.66312	512.69678	125.85753	-356.84692	410.47806	142.51581	-355.46069	408.18460	231.43639	-218.47997	334.24319	148.56172	-180.80872	304.82816	148.57675	-252.27477	283.11197	159.98062	-208.98573	260.32220	153.90717	-68.55683	223.23500	132.83774	-78.81918	213.26688	217.49260	-15.17785	253.42128	180.16840	-124.22250	82.45690	209.69490	-143.92444	78.67239	169.90846	-116.88401	91.52206	119.98099
675	5.61667	-359.24878	977.68500	349.48032	-544.84015	914.73743	428.06238	-567.07703	574.54523	455.99219	-588.32489	538.61816	449.54019	-626.07202	598.48743	443.28229	-636.53516	558.00604	438.97571	-636.15930	478.69418	434.34628	-629.75885	474.07672	328.21494	-588.53821	378.47156	453.18900	-598.37427	334.34702	458.06625	-648.71576	385.58252	441.75327	-650.94049	343.86191	445.08441	-614.05487	87.44430	415.04828	-631.53168	97.24379	331.82184	-550.36768	76.68486	365.01080	-731.23547	42.87061	434.10864	-770.84515	66.08102	379.81458	-747.22552	56.74238	340.50262	-365.95425	993.80872	217.55046	-545.45392	959.46600	175.08412	-384.82675	569.29285	120.51438	-382.13239	526.83417	119.87305	-446.32324	558.03772	131.43158	-433.60413	514.75299	127.27351	-381.29785	410.82452	143.98936	-379.46185	408.60580	232.97688	-240.72229	338.54471	149.58841	-202.45604	310.15414	149.33308	-272.07608	285.97183	161.96902	-229.76056	266.58231	153.01074	-86.76913	231.58174	133.11127	-95.68528	222.64206	218.41217	-34.08411	263.02725	180.50365	-138.69673	89.43014	210.16139	-158.56007	85.08929	170.42876	-131.84660	98.64745	120.37476
676	5.62500	-369.66193	980.54047	351.87372	-555.73340	917.43689	428.04333	-572.54089	575.63251	456.87106	-593.14111	539.38000	450.43408	-631.80994	598.64709	444.19806	-641.75146	558.00775	439.76294	-639.93671	478.98907	435.29099	-632.48267	473.41992	328.90723	-590.44037	378.86877	453.85251	-599.81525	334.54782	458.71796	-650.90961	385.35516	442.96011	-652.63519	343.57095	446.15244	-614.15448	87.47395	415.06607	-631.62421	97.38681	331.90842	-550.36334	76.80242	365.03836	-731.23334	42.79464	434.16852	-770.87628	65.88603	379.82220	-747.06805	56.60881	340.37646	-375.34689	996.79181	219.86407	-554.78442	963.55188	175.44948	-403.81409	570.69458	121.56305	-402.24423	527.79144	121.18914	-465.31787	561.02643	132.81470	-454.03082	517.40210	128.77551	-405.32187	411.97040	145.62306	-402.65030	410.05658	234.55367	-263.11755	342.90366	150.61980	-224.02759	315.26819	150.58502	-293.33704	289.96255	162.83813	-250.68304	271.19348	155.47362	-108.04010	239.71596	133.45697	-116.47652	230.57935	218.87062	-56.03059	272.78397	180.63187	-155.36046	96.11800	210.92551	-175.27888	91.10005	171.30840	-149.09796	105.48734	120.99940
